<svg width="24" height="24" viewBox="0 0 24 24" fill="none" xmlns="http://www.w3.org/2000/svg">
<rect x="1" y="1" width="22" height="22" rx="11" stroke="black" stroke-width="2"/>
<path d="M20 22.5732V20.5732C20 19.5124 19.5786 18.495 18.8284 17.7448C18.0783 16.9947 17.0609 16.5732 16 16.5732H8C6.93913 16.5732 5.92172 16.9947 5.17157 17.7448C4.42143 18.495 4 19.5124 4 20.5732V22.5732" stroke="black" stroke-width="2" stroke-linecap="round" stroke-linejoin="round"/>
<path d="M12 13C14.2091 13 16 11.2091 16 9C16 6.79086 14.2091 5 12 5C9.79086 5 8 6.79086 8 9C8 11.2091 9.79086 13 12 13Z" stroke="black" stroke-width="2" stroke-linecap="round" stroke-linejoin="round"/>
</svg>
