<svg width="247" height="24" viewBox="0 0 247 24" fill="none" xmlns="http://www.w3.org/2000/svg">
<g clip-path="url(#clip0_146_15015)">
<mask id="mask0_146_15015" style="mask-type:luminance" maskUnits="userSpaceOnUse" x="0" y="0" width="24" height="24">
<path d="M0 1.90735e-06H24V24H0V1.90735e-06Z" fill="white"/>
</mask>
<g mask="url(#mask0_146_15015)">
<path d="M23.0625 19.375V10.1562L12 0.937502L0.9375 10.1562V23.0625H11.9816" stroke="black" stroke-width="2" stroke-miterlimit="10" stroke-linecap="round" stroke-linejoin="round"/>
<path d="M16.5918 14.752C16.5918 17.2977 14.5281 19.3613 11.9825 19.3613C9.43677 19.3613 7.37305 17.2977 7.37305 14.752C7.37305 12.2063 9.43677 10.1426 11.9825 10.1426C14.5281 10.1426 16.5918 12.2063 16.5918 14.752Z" stroke="black" stroke-width="2" stroke-miterlimit="10" stroke-linecap="round" stroke-linejoin="round"/>
<path d="M14.7461 18.4395L19.3691 23.0625" stroke="black" stroke-width="2" stroke-miterlimit="10" stroke-linecap="round" stroke-linejoin="round"/>
</g>
</g>
<path d="M29.168 20.5V9.812H33.584C34.8853 9.812 35.8773 10.084 36.56 10.628C37.2533 11.1613 37.6 11.972 37.6 13.06C37.6 13.9667 37.3707 14.6707 36.912 15.172C36.4533 15.6627 35.792 15.9933 34.928 16.164L38.144 20.5H35.856L32.912 16.308H31.12V20.5H29.168ZM31.12 14.74H33.248C34.0587 14.74 34.656 14.612 35.04 14.356C35.4347 14.0893 35.632 13.6627 35.632 13.076C35.632 12.468 35.4453 12.0413 35.072 11.796C34.6987 11.54 34.0907 11.412 33.248 11.412H31.12V14.74ZM43.0969 20.66C42.3289 20.66 41.6355 20.5107 41.0169 20.212C40.3982 19.9133 39.9022 19.476 39.5289 18.9C39.1662 18.3133 38.9849 17.5933 38.9849 16.74C38.9849 15.94 39.1555 15.2467 39.4969 14.66C39.8489 14.0733 40.3129 13.62 40.8889 13.3C41.4755 12.98 42.1315 12.82 42.8569 12.82C43.6035 12.82 44.2542 12.964 44.8089 13.252C45.3635 13.5293 45.7955 13.9133 46.1049 14.404C46.4142 14.8947 46.5689 15.4547 46.5689 16.084C46.5689 16.2653 46.5422 16.468 46.4889 16.692C46.4355 16.916 46.3715 17.0973 46.2969 17.236H40.8569C40.9102 17.652 41.0382 18.004 41.2409 18.292C41.4542 18.5693 41.7315 18.7827 42.0729 18.932C42.4142 19.0707 42.8142 19.14 43.2729 19.14C43.7529 19.14 44.1795 19.0707 44.5529 18.932C44.9369 18.7827 45.3049 18.5853 45.6569 18.34L46.2489 19.652C45.8115 19.9827 45.3315 20.2333 44.8089 20.404C44.2862 20.5747 43.7155 20.66 43.0969 20.66ZM40.8569 15.956H44.6649C44.6755 15.924 44.6809 15.8973 44.6809 15.876C44.6915 15.844 44.6969 15.8173 44.6969 15.796C44.6969 15.4867 44.6329 15.2253 44.5049 15.012C44.3769 14.788 44.1795 14.612 43.9129 14.484C43.6462 14.356 43.3102 14.292 42.9049 14.292C42.5635 14.292 42.2489 14.3613 41.9609 14.5C41.6835 14.628 41.4489 14.82 41.2569 15.076C41.0649 15.3213 40.9315 15.6147 40.8569 15.956ZM50.722 20.66C50.1887 20.66 49.7087 20.5747 49.282 20.404C48.866 20.2333 48.5353 19.9827 48.29 19.652C48.0553 19.3107 47.938 18.8947 47.938 18.404C47.938 17.9027 48.0553 17.4973 48.29 17.188C48.5353 16.868 48.866 16.6227 49.282 16.452C49.7087 16.2707 50.1887 16.148 50.722 16.084L53.266 15.764C53.202 15.2733 52.9993 14.9213 52.658 14.708C52.3273 14.484 51.9273 14.372 51.458 14.372C51.106 14.372 50.738 14.436 50.354 14.564C49.9807 14.692 49.5647 14.9 49.106 15.188L48.482 13.844C48.9407 13.5133 49.426 13.2627 49.938 13.092C50.4607 12.9107 50.994 12.82 51.538 12.82C52.7113 12.82 53.602 13.0813 54.21 13.604C54.818 14.116 55.122 14.8893 55.122 15.924V20.5H53.362V19.524C53.0847 19.9187 52.7273 20.2067 52.29 20.388C51.8527 20.5693 51.33 20.66 50.722 20.66ZM51.234 19.188C51.6713 19.188 52.0393 19.1027 52.338 18.932C52.6473 18.7613 52.882 18.532 53.042 18.244C53.2127 17.956 53.298 17.6573 53.298 17.348V17.06L51.298 17.316C50.7967 17.38 50.4233 17.4867 50.178 17.636C49.9327 17.7853 49.81 18.0093 49.81 18.308C49.81 18.596 49.9327 18.8147 50.178 18.964C50.4233 19.1133 50.7753 19.188 51.234 19.188ZM57.2911 20.5V9.812H59.1151V20.5H57.2911ZM65.1524 20.5V9.812H72.7364V11.46H67.1044V14.228H72.2564V15.764H67.1044V18.852H72.7364V20.5H65.1524ZM77.3709 20.66C76.8055 20.66 76.2615 20.5747 75.7389 20.404C75.2269 20.2333 74.7255 19.988 74.2349 19.668L74.9229 18.292C75.4029 18.6013 75.8509 18.836 76.2669 18.996C76.6829 19.1453 77.0669 19.22 77.4189 19.22C77.8882 19.22 78.2402 19.1507 78.4749 19.012C78.7095 18.8733 78.8269 18.66 78.8269 18.372C78.8269 18.148 78.7522 17.9773 78.6029 17.86C78.4535 17.7427 78.1869 17.652 77.8029 17.588L76.6669 17.38C75.9415 17.2307 75.3922 16.9907 75.0189 16.66C74.6562 16.3187 74.4749 15.8707 74.4749 15.316C74.4749 14.8573 74.5869 14.4413 74.8109 14.068C75.0349 13.684 75.3709 13.38 75.8189 13.156C76.2775 12.932 76.8589 12.82 77.5629 12.82C78.1069 12.82 78.6242 12.9 79.1149 13.06C79.6055 13.2093 80.0535 13.4173 80.4589 13.684L79.8029 15.012C79.4509 14.7987 79.0882 14.6227 78.7149 14.484C78.3522 14.3347 77.9895 14.26 77.6269 14.26C77.2215 14.26 76.9069 14.3293 76.6829 14.468C76.4589 14.596 76.3469 14.7987 76.3469 15.076C76.3469 15.2573 76.4162 15.4013 76.5549 15.508C76.6935 15.6147 76.9389 15.7 77.2909 15.764L78.4269 15.972C79.1629 16.1213 79.7229 16.3667 80.1069 16.708C80.5015 17.0493 80.6989 17.5347 80.6989 18.164C80.6989 18.8893 80.4162 19.4867 79.8509 19.956C79.2962 20.4253 78.4695 20.66 77.3709 20.66ZM85.7906 20.596C84.9373 20.596 84.3133 20.404 83.9186 20.02C83.524 19.636 83.3266 19.0387 83.3266 18.228V14.516H81.7266V12.98H83.3266V10.836H85.1666V12.98H87.0546V14.516H85.1666V18.068C85.1666 18.3987 85.252 18.6493 85.4226 18.82C85.5933 18.98 85.8493 19.06 86.1906 19.06C86.3186 19.06 86.468 19.0547 86.6386 19.044C86.82 19.0333 86.9586 19.0173 87.0546 18.996V20.452C86.9053 20.4947 86.7133 20.5267 86.4786 20.548C86.2546 20.58 86.0253 20.596 85.7906 20.596ZM91.1283 20.66C90.5949 20.66 90.1149 20.5747 89.6883 20.404C89.2723 20.2333 88.9416 19.9827 88.6963 19.652C88.4616 19.3107 88.3443 18.8947 88.3443 18.404C88.3443 17.9027 88.4616 17.4973 88.6963 17.188C88.9416 16.868 89.2723 16.6227 89.6883 16.452C90.1149 16.2707 90.5949 16.148 91.1283 16.084L93.6723 15.764C93.6083 15.2733 93.4056 14.9213 93.0643 14.708C92.7336 14.484 92.3336 14.372 91.8643 14.372C91.5123 14.372 91.1443 14.436 90.7603 14.564C90.3869 14.692 89.9709 14.9 89.5123 15.188L88.8883 13.844C89.3469 13.5133 89.8323 13.2627 90.3443 13.092C90.8669 12.9107 91.4003 12.82 91.9443 12.82C93.1176 12.82 94.0083 13.0813 94.6163 13.604C95.2243 14.116 95.5283 14.8893 95.5283 15.924V20.5H93.7683V19.524C93.4909 19.9187 93.1336 20.2067 92.6963 20.388C92.2589 20.5693 91.7363 20.66 91.1283 20.66ZM91.6403 19.188C92.0776 19.188 92.4456 19.1027 92.7443 18.932C93.0536 18.7613 93.2883 18.532 93.4483 18.244C93.6189 17.956 93.7043 17.6573 93.7043 17.348V17.06L91.7043 17.316C91.2029 17.38 90.8296 17.4867 90.5843 17.636C90.3389 17.7853 90.2163 18.0093 90.2163 18.308C90.2163 18.596 90.3389 18.8147 90.5843 18.964C90.8296 19.1133 91.1816 19.188 91.6403 19.188ZM100.306 20.596C99.4529 20.596 98.8289 20.404 98.4343 20.02C98.0396 19.636 97.8423 19.0387 97.8423 18.228V14.516H96.2423V12.98H97.8423V10.836H99.6823V12.98H101.57V14.516H99.6823V18.068C99.6823 18.3987 99.7676 18.6493 99.9383 18.82C100.109 18.98 100.365 19.06 100.706 19.06C100.834 19.06 100.984 19.0547 101.154 19.044C101.336 19.0333 101.474 19.0173 101.57 18.996V20.452C101.421 20.4947 101.229 20.5267 100.994 20.548C100.77 20.58 100.541 20.596 100.306 20.596ZM106.972 20.66C106.204 20.66 105.511 20.5107 104.892 20.212C104.273 19.9133 103.777 19.476 103.404 18.9C103.041 18.3133 102.86 17.5933 102.86 16.74C102.86 15.94 103.031 15.2467 103.372 14.66C103.724 14.0733 104.188 13.62 104.764 13.3C105.351 12.98 106.007 12.82 106.732 12.82C107.479 12.82 108.129 12.964 108.684 13.252C109.239 13.5293 109.671 13.9133 109.98 14.404C110.289 14.8947 110.444 15.4547 110.444 16.084C110.444 16.2653 110.417 16.468 110.364 16.692C110.311 16.916 110.247 17.0973 110.172 17.236H104.732C104.785 17.652 104.913 18.004 105.116 18.292C105.329 18.5693 105.607 18.7827 105.948 18.932C106.289 19.0707 106.689 19.14 107.148 19.14C107.628 19.14 108.055 19.0707 108.428 18.932C108.812 18.7827 109.18 18.5853 109.532 18.34L110.124 19.652C109.687 19.9827 109.207 20.2333 108.684 20.404C108.161 20.5747 107.591 20.66 106.972 20.66ZM104.732 15.956H108.54C108.551 15.924 108.556 15.8973 108.556 15.876C108.567 15.844 108.572 15.8173 108.572 15.796C108.572 15.4867 108.508 15.2253 108.38 15.012C108.252 14.788 108.055 14.612 107.788 14.484C107.521 14.356 107.185 14.292 106.78 14.292C106.439 14.292 106.124 14.3613 105.836 14.5C105.559 14.628 105.324 14.82 105.132 15.076C104.94 15.3213 104.807 15.6147 104.732 15.956Z" fill="black"/>
<defs>
<clipPath id="clip0_146_15015">
<rect width="24" height="24" fill="white"/>
</clipPath>
</defs>
</svg>
